<svg id="visual" viewBox="0 0 960 540" width="960" height="540" xmlns="http://www.w3.org/2000/svg" xmlns:xlink="http://www.w3.org/1999/xlink" version="1.1"><rect x="0" y="0" width="960" height="540" fill="#ffffff"></rect><path d="M0 163L16 159.5C32 156 64 149 96 146.5C128 144 160 146 192 151C224 156 256 164 288 162.5C320 161 352 150 384 142.8C416 135.7 448 132.3 480 132.8C512 133.3 544 137.7 576 145.7C608 153.7 640 165.3 672 169.2C704 173 736 169 768 163.7C800 158.3 832 151.7 864 150C896 148.3 928 151.7 944 153.3L960 155L960 0L944 0C928 0 896 0 864 0C832 0 800 0 768 0C736 0 704 0 672 0C640 0 608 0 576 0C544 0 512 0 480 0C448 0 416 0 384 0C352 0 320 0 288 0C256 0 224 0 192 0C160 0 128 0 96 0C64 0 32 0 16 0L0 0Z" fill="#a83267"></path><path d="M0 123L16 120.5C32 118 64 113 96 111.5C128 110 160 112 192 110C224 108 256 102 288 105C320 108 352 120 384 121.2C416 122.3 448 112.7 480 111C512 109.3 544 115.7 576 114.7C608 113.7 640 105.3 672 105C704 104.7 736 112.3 768 113.7C800 115 832 110 864 110C896 110 928 115 944 117.5L960 120L960 0L944 0C928 0 896 0 864 0C832 0 800 0 768 0C736 0 704 0 672 0C640 0 608 0 576 0C544 0 512 0 480 0C448 0 416 0 384 0C352 0 320 0 288 0C256 0 224 0 192 0C160 0 128 0 96 0C64 0 32 0 16 0L0 0Z" fill="#c13976"></path><path d="M0 81L16 82.2C32 83.3 64 85.7 96 85.5C128 85.3 160 82.7 192 84.2C224 85.7 256 91.3 288 91.8C320 92.3 352 87.7 384 81.7C416 75.7 448 68.3 480 66.5C512 64.7 544 68.3 576 68.2C608 68 640 64 672 64.8C704 65.7 736 71.3 768 71.8C800 72.3 832 67.7 864 69.8C896 72 928 81 944 85.5L960 90L960 0L944 0C928 0 896 0 864 0C832 0 800 0 768 0C736 0 704 0 672 0C640 0 608 0 576 0C544 0 512 0 480 0C448 0 416 0 384 0C352 0 320 0 288 0C256 0 224 0 192 0C160 0 128 0 96 0C64 0 32 0 16 0L0 0Z" fill="#db4186"></path><path d="M0 27L16 31C32 35 64 43 96 48C128 53 160 55 192 51.7C224 48.3 256 39.7 288 35.3C320 31 352 31 384 33.7C416 36.3 448 41.7 480 42.8C512 44 544 41 576 39.7C608 38.3 640 38.7 672 37.8C704 37 736 35 768 35.3C800 35.7 832 38.3 864 40.5C896 42.7 928 44.3 944 45.2L960 46L960 0L944 0C928 0 896 0 864 0C832 0 800 0 768 0C736 0 704 0 672 0C640 0 608 0 576 0C544 0 512 0 480 0C448 0 416 0 384 0C352 0 320 0 288 0C256 0 224 0 192 0C160 0 128 0 96 0C64 0 32 0 16 0L0 0Z" fill="#f54996"></path></svg>