<svg id="visual" viewBox="0 0 960 540"  xmlns="http://www.w3.org/2000/svg" xmlns:xlink="http://www.w3.org/1999/xlink" version="1.1"><rect x="0" y="0"  fill="#ffffff"></rect><path d="M0 375L16 378.5C32 382 64 389 96 391.5C128 394 160 392 192 387C224 382 256 374 288 375.5C320 377 352 388 384 395.2C416 402.3 448 405.7 480 405.2C512 404.7 544 400.3 576 392.3C608 384.3 640 372.7 672 368.8C704 365 736 369 768 374.3C800 379.7 832 386.3 864 388C896 389.7 928 386.3 944 384.7L960 383L960 541L944 541C928 541 896 541 864 541C832 541 800 541 768 541C736 541 704 541 672 541C640 541 608 541 576 541C544 541 512 541 480 541C448 541 416 541 384 541C352 541 320 541 288 541C256 541 224 541 192 541C160 541 128 541 96 541C64 541 32 541 16 541L0 541Z" fill="#a83267"></path><path d="M0 415L16 417.5C32 420 64 425 96 426.5C128 428 160 426 192 428C224 430 256 436 288 433C320 430 352 418 384 416.8C416 415.7 448 425.3 480 427C512 428.7 544 422.3 576 423.3C608 424.3 640 432.7 672 433C704 433.3 736 425.7 768 424.3C800 423 832 428 864 428C896 428 928 423 944 420.5L960 418L960 541L944 541C928 541 896 541 864 541C832 541 800 541 768 541C736 541 704 541 672 541C640 541 608 541 576 541C544 541 512 541 480 541C448 541 416 541 384 541C352 541 320 541 288 541C256 541 224 541 192 541C160 541 128 541 96 541C64 541 32 541 16 541L0 541Z" fill="#c13976"></path><path d="M0 457L16 455.8C32 454.7 64 452.3 96 452.5C128 452.7 160 455.3 192 453.8C224 452.3 256 446.7 288 446.2C320 445.7 352 450.3 384 456.3C416 462.3 448 469.7 480 471.5C512 473.3 544 469.7 576 469.8C608 470 640 474 672 473.2C704 472.3 736 466.7 768 466.2C800 465.7 832 470.3 864 468.2C896 466 928 457 944 452.5L960 448L960 541L944 541C928 541 896 541 864 541C832 541 800 541 768 541C736 541 704 541 672 541C640 541 608 541 576 541C544 541 512 541 480 541C448 541 416 541 384 541C352 541 320 541 288 541C256 541 224 541 192 541C160 541 128 541 96 541C64 541 32 541 16 541L0 541Z" fill="#db4186"></path><path d="M0 511L16 507C32 503 64 495 96 490C128 485 160 483 192 486.3C224 489.7 256 498.3 288 502.7C320 507 352 507 384 504.3C416 501.7 448 496.3 480 495.2C512 494 544 497 576 498.3C608 499.7 640 499.3 672 500.2C704 501 736 503 768 502.7C800 502.3 832 499.7 864 497.5C896 495.3 928 493.7 944 492.8L960 492L960 541L944 541C928 541 896 541 864 541C832 541 800 541 768 541C736 541 704 541 672 541C640 541 608 541 576 541C544 541 512 541 480 541C448 541 416 541 384 541C352 541 320 541 288 541C256 541 224 541 192 541C160 541 128 541 96 541C64 541 32 541 16 541L0 541Z" fill="#f54996"></path></svg>