<svg xmlns="http://www.w3.org/2000/svg" version="1.1" xmlns:xlink="http://www.w3.org/1999/xlink" viewBox="0 0 600 600"><path d="M13.032587823361439 465.84977351594057C-8.433381023913341 436.3995120820215 -19.689923944979626 276.05921565461296 -1.8888775735196646 250.66654597687858C15.912168797940296 225.2738762991442 73.63467953313415 300.27386104035514 119.8388660521212 313.49375544953466C166.04305257110826 326.71364985871423 231.88074125557176 332.21104060578455 275.33624154040245 329.9859124319564C318.79174182523315 327.7607842581283 341.82840869535033 314.5408923920803 380.5718677611056 300.1429864065661C419.3153268268608 285.74508042105174 476.77605579007445 232.21104060578483 507.79699593493115 243.59847651887077C538.8179360797881 254.9859124319567 575.7289213906604 349.35765468049146 566.6975086302436 368.4676018850813C557.6660958698271 387.57754908967115 490.388624963251 347.91784806021155 453.6085193724326 358.25815974640943C416.8284137816134 368.5984714326073 382.7969832192761 404.20057307648756 346.01687508532433 430.5094720022687C309.23676695137254 456.81837092804983 269.4461938312553 516.6351128714088 232.92787056872277 516.1115533010963C196.40954730619018 515.5879937307839 163.55614930102257 435.7450778779197 126.90693551012902 427.3681145803938C90.25772171923546 418.9911512828679 34.49855667063622 495.30003494985954 13.032587823361439 465.84977351594057C-8.433381023913341 436.3995120820215 -19.689923944979626 276.05921565461296 -1.8888775735196646 250.66654597687858 " fill="hsl(340, 45%, 50%)" transform="matrix(1.4373295043076817,0,0,1.4373295043076817,-35.380111483457426,-256.62618462461757)"></path></svg>